<svg width="198" height="46" viewBox="0 0 198 46" fill="none" xmlns="http://www.w3.org/2000/svg">
<g clip-path="url(#clip0_208_1408)">
<path d="M117.414 44.9691C117.714 45.2774 118.651 46.0002 120.344 46.0002C122.258 46.0002 123.417 44.6068 123.417 43.2271C123.417 41.4055 121.802 40.5876 120.787 40.1725C119.758 39.7436 119.368 39.3682 119.368 38.8723C119.368 38.5112 119.719 38.1899 120.188 38.1899C120.982 38.1899 121.933 38.9264 122.05 38.9928C122.167 39.0867 122.401 38.9661 122.493 38.8188L123.157 37.7878C123.208 37.6946 123.234 37.4522 123.078 37.359C122.688 37.0644 121.646 36.354 120.291 36.354C118.287 36.354 117.284 37.6946 117.284 39.0202C117.284 40.6287 118.69 41.5254 119.81 41.981C120.695 42.3427 121.151 42.7722 121.151 43.3346C121.151 43.8032 120.773 44.1375 120.253 44.1375C119.393 44.1375 118.455 43.4278 118.403 43.4011C118.312 43.3346 118.064 43.3072 117.96 43.4819L117.349 44.5938C117.244 44.7814 117.284 44.8349 117.414 44.9691Z" fill="#009CDE"/>
<path d="M112.684 42.0749C113.817 41.6063 114.612 40.615 114.612 39.3819C114.612 37.7878 113.335 36.4883 111.773 36.4883H107.879C107.736 36.4883 107.632 36.6089 107.632 36.7431V45.6124C107.632 45.746 107.736 45.8672 107.879 45.8672H109.429C109.559 45.8672 109.677 45.746 109.677 45.6124V42.1961H110.575L112.306 45.7467C112.334 45.8001 112.411 45.8679 112.515 45.8679H114.247C114.469 45.8679 114.56 45.6528 114.469 45.4795L112.685 42.0755L112.684 42.0749ZM111.481 40.4944H109.554V38.4044H111.481C112.015 38.4044 112.47 38.8606 112.47 39.4223C112.47 39.9841 112.014 40.4944 111.481 40.4944Z" fill="#009CDE"/>
<path d="M100.349 36.354C97.7442 36.354 95.6748 38.5112 95.6748 41.1911C95.6748 43.871 97.7442 46.0002 100.349 46.0002C102.953 46.0002 105.035 43.8703 105.035 41.1911C105.035 38.5119 102.952 36.354 100.349 36.354ZM100.349 43.8567C98.9288 43.8567 97.7576 42.651 97.7576 41.1905C97.7576 39.7299 98.9288 38.4969 100.349 38.4969C101.769 38.4969 102.952 39.7163 102.952 41.1905C102.952 42.6647 101.781 43.8567 100.349 43.8567Z" fill="#009CDE"/>
<path d="M88.1294 45.0226C88.3514 45.3035 88.9761 46.0002 90.1091 46.0002C91.6334 46.0002 92.9089 44.9288 92.9089 43.0668V36.7431C92.9089 36.6089 92.8052 36.4883 92.6614 36.4883H91.0729C90.9291 36.4883 90.8254 36.6089 90.8254 36.7431V43.0538C90.8254 43.7237 90.4215 44.0717 90.057 44.0717C89.6924 44.0717 89.5493 43.9512 89.3934 43.7902C89.2891 43.6833 89.146 43.697 89.0416 43.7902L88.1568 44.6889C88.0791 44.7828 88.0651 44.9164 88.13 45.0233L88.1294 45.0226Z" fill="#009CDE"/>
<path d="M86.6306 45.5179L82.5547 36.5019C82.5159 36.4211 82.4243 36.354 82.3334 36.354H82.2036C82.1126 36.354 82.021 36.4211 81.9816 36.5019L77.9057 45.5179C77.8281 45.6926 77.9324 45.8672 78.1271 45.8672H79.5603C79.8212 45.8672 79.9637 45.7056 80.0292 45.5459L80.4987 44.4732H84.0395L84.5084 45.5316C84.6254 45.7864 84.7304 45.8672 84.9645 45.8672H86.4099C86.6052 45.8672 86.7095 45.6932 86.6313 45.5179H86.6306ZM81.2786 42.651L82.2558 40.4403H82.2678L83.2577 42.651H81.2786Z" fill="#009CDE"/>
<path d="M65.8826 45.5723C65.8565 45.7463 65.9735 45.8675 66.13 45.8675H67.667C67.7968 45.8675 67.9011 45.76 67.9138 45.6525L68.487 41.5134H68.5137L70.7136 45.8539C70.753 45.9347 70.8567 46.0012 70.9349 46.0012H71.1697C71.2346 46.0012 71.3523 45.9347 71.3911 45.8539L73.5788 41.5134H73.6049L74.1908 45.6525C74.2042 45.76 74.3212 45.8675 74.4383 45.8675H75.9746C76.1311 45.8675 76.2488 45.7463 76.2221 45.5723L74.7513 36.5694C74.7379 36.4488 74.6209 36.355 74.5165 36.355H74.3079C74.243 36.355 74.1259 36.4091 74.0865 36.4886L71.066 42.2765H71.0393L68.0188 36.4886C67.9793 36.4084 67.8616 36.355 67.7968 36.355H67.5881C67.4844 36.355 67.3667 36.4495 67.354 36.5694L65.8826 45.5723Z" fill="#009CDE"/>
<path d="M139.399 33.4941C139.399 33.6277 139.516 33.7482 139.646 33.7482H141.196C141.338 33.7482 141.443 33.6277 141.443 33.4941V28.4966H141.456L146.599 33.8154C146.626 33.8421 146.729 33.8825 146.769 33.8825H146.977C147.107 33.8825 147.224 33.775 147.224 33.6414V24.6254C147.224 24.4912 147.107 24.3706 146.977 24.3706H145.414C145.271 24.3706 145.166 24.4912 145.166 24.6254V29.381H145.154L139.959 24.2363H139.633C139.502 24.2363 139.385 24.3439 139.385 24.4775L139.399 33.4941Z" fill="#009CDE"/>
<path d="M132.188 24.2363C129.584 24.2363 127.514 26.3935 127.514 29.0734C127.514 31.7533 129.584 33.8832 132.188 33.8832C134.793 33.8832 136.875 31.7527 136.875 29.0734C136.875 26.3942 134.793 24.2363 132.188 24.2363ZM132.188 31.739C130.769 31.739 129.598 30.5333 129.598 29.0728C129.598 27.6123 130.769 26.3792 132.188 26.3792C133.607 26.3792 134.793 27.5986 134.793 29.0728C134.793 30.547 133.62 31.739 132.188 31.739Z" fill="#009CDE"/>
<path d="M117.174 33.4941C117.174 33.6277 117.292 33.7483 117.421 33.7483H118.97C119.114 33.7483 119.218 33.6277 119.218 33.4941V29.9709H122.942V33.4941C122.942 33.6277 123.047 33.7483 123.19 33.7483H124.739C124.87 33.7483 124.987 33.6277 124.987 33.4941V24.6254C124.987 24.4912 124.87 24.3706 124.739 24.3706H123.19C123.047 24.3706 122.942 24.4912 122.942 24.6254V28.0014H119.218V24.6254C119.218 24.4912 119.114 24.3706 118.97 24.3706H117.421C117.292 24.3706 117.174 24.4912 117.174 24.6254V33.4941Z" fill="#009CDE"/>
<path d="M110.215 33.4941C110.215 33.6277 110.333 33.7483 110.462 33.7483H112.025C112.156 33.7483 112.273 33.6277 112.273 33.4941V26.3401H114.134C114.278 26.3401 114.382 26.2195 114.382 26.0853V24.6254C114.382 24.4912 114.278 24.3706 114.134 24.3706H108.352C108.209 24.3706 108.105 24.4912 108.105 24.6254V26.0853C108.105 26.2202 108.209 26.3401 108.352 26.3401H110.215V33.4941Z" fill="#009CDE"/>
<path d="M106.71 33.4009L102.634 24.3836C102.595 24.3035 102.504 24.2363 102.413 24.2363H102.282C102.191 24.2363 102.1 24.3035 102.061 24.3836L97.9849 33.4009C97.9072 33.5749 98.0109 33.7482 98.2069 33.7482H99.6389C99.8997 33.7482 100.043 33.5873 100.108 33.4269L100.577 32.3555H104.119L104.586 33.4133C104.704 33.6681 104.809 33.7482 105.043 33.7482H106.488C106.683 33.7482 106.787 33.5749 106.71 33.4009ZM101.358 30.5333L102.334 28.3226H102.348L103.337 30.5333H101.357H101.358Z" fill="#009CDE"/>
<path d="M94.233 29.9574C95.3654 29.4881 96.1606 28.4968 96.1606 27.2638C96.1606 25.6697 94.8845 24.3701 93.3221 24.3701H89.4288C89.285 24.3701 89.1807 24.4907 89.1807 24.6249V33.4936C89.1807 33.6272 89.285 33.7478 89.4288 33.7478H90.9785C91.1082 33.7478 91.2259 33.6272 91.2259 33.4936V30.0773H92.1235L93.8558 33.6272C93.8819 33.6813 93.9601 33.7478 94.0645 33.7478H95.7961C96.0181 33.7478 96.1091 33.5334 96.0181 33.36L94.2337 29.9567L94.233 29.9574ZM93.1522 28.3763H91.2259V26.2862H93.1522C93.6872 26.2862 94.1421 26.7424 94.1421 27.3042C94.1421 27.866 93.6866 28.3763 93.1522 28.3763Z" fill="#009CDE"/>
<path d="M86.6296 33.4009L82.5538 24.3836C82.515 24.3035 82.4233 24.2363 82.3324 24.2363H82.2026C82.111 24.2363 82.0194 24.3035 81.9806 24.3836L77.9047 33.4009C77.8271 33.5749 77.9314 33.7482 78.1267 33.7482H79.5587C79.8195 33.7482 79.9627 33.5873 80.0282 33.4269L80.4971 32.3555H84.0386L84.5068 33.4133C84.6245 33.6681 84.7294 33.7482 84.9635 33.7482H86.4089C86.6042 33.7482 86.7079 33.5749 86.6303 33.4009H86.6296ZM81.2776 30.5333L82.2541 28.3226H82.2669L83.2567 30.5333H81.2776Z" fill="#009CDE"/>
<path d="M65.8826 33.4537C65.8565 33.6277 65.9735 33.7482 66.13 33.7482H67.667C67.7968 33.7482 67.9011 33.6414 67.9138 33.5338L68.487 29.3947H68.5137L70.7136 33.7352C70.753 33.816 70.8567 33.8832 70.9349 33.8832H71.1697C71.2346 33.8832 71.3523 33.816 71.3911 33.7352L73.5788 29.3947H73.6049L74.1908 33.5338C74.2042 33.6414 74.3212 33.7482 74.4383 33.7482H75.9746C76.1311 33.7482 76.2488 33.6277 76.2221 33.4537L74.7513 24.4507C74.7379 24.3302 74.6209 24.2363 74.5165 24.2363H74.3079C74.243 24.2363 74.1259 24.2904 74.0865 24.3706L71.066 30.1579H71.0393L68.0188 24.3706C67.9793 24.2904 67.8616 24.2363 67.7968 24.2363H67.5881C67.4844 24.2363 67.3667 24.3302 67.354 24.4507L65.8826 33.4537Z" fill="#009CDE"/>
<path d="M110.451 12.2516H107.274C107.143 12.2516 107.039 12.3722 107.039 12.5065V21.3758C107.039 21.5094 107.143 21.6299 107.274 21.6299H110.451C112.964 21.6299 115.022 19.5262 115.022 16.9271C115.022 14.328 112.964 12.251 110.451 12.251V12.2516ZM110.321 19.6474H109.071V14.2218H110.321C111.792 14.2218 112.86 15.4144 112.86 16.9277C112.86 18.4411 111.792 19.6474 110.321 19.6474Z" fill="#009CDE"/>
<path d="M99.2008 21.3761C99.2008 21.5097 99.3052 21.6303 99.4483 21.6303H104.344C104.487 21.6303 104.592 21.5097 104.592 21.3761V19.9156C104.592 19.7813 104.487 19.6608 104.344 19.6608H101.245V12.5068C101.245 12.3725 101.128 12.252 100.997 12.252H99.4477C99.3045 12.252 99.2002 12.3725 99.2002 12.5068V21.3761H99.2008Z" fill="#009CDE"/>
<path d="M94.233 17.8392C95.3654 17.3699 96.1606 16.3787 96.1606 15.1463C96.1606 13.5521 94.8845 12.252 93.3221 12.252H89.4288C89.285 12.252 89.1807 12.3725 89.1807 12.5068V21.3761C89.1807 21.5097 89.285 21.6303 89.4288 21.6303H90.9785C91.1082 21.6303 91.2259 21.5097 91.2259 21.3761V17.9591H92.1242L93.8558 21.5097C93.8819 21.5638 93.9601 21.6303 94.0645 21.6303H95.7961C96.0181 21.6303 96.1091 21.4158 96.0181 21.2418L94.2337 17.8392H94.233ZM93.1522 16.2581H91.2259V14.168H93.1522C93.6872 14.168 94.1421 14.6236 94.1421 15.1867C94.1421 15.7498 93.6866 16.2581 93.1522 16.2581Z" fill="#009CDE"/>
<path d="M82.2461 12.1182C79.6423 12.1182 77.5723 14.2747 77.5723 16.954C77.5723 19.6332 79.6423 21.7643 82.2461 21.7643C84.85 21.7643 86.934 19.6338 86.934 16.954C86.934 14.2741 84.8506 12.1182 82.2461 12.1182ZM82.2461 19.6208C80.8275 19.6208 79.6551 18.4151 79.6551 16.954C79.6551 15.4928 80.8275 14.2617 82.2461 14.2617C83.6648 14.2617 84.8506 15.4804 84.8506 16.954C84.8506 18.4275 83.6788 19.6208 82.2461 19.6208Z" fill="#009CDE"/>
<path d="M68.0178 21.5766C68.0439 21.6835 68.1482 21.7643 68.2526 21.7643H68.4606C68.5522 21.7643 68.6438 21.6972 68.682 21.617L71.0523 16.1373H71.0911L73.4742 21.617C73.513 21.6972 73.604 21.7643 73.6956 21.7643H73.9036C74.0079 21.7643 74.1122 21.6835 74.1383 21.5766L76.599 12.5737C76.6512 12.386 76.5468 12.2518 76.3649 12.2518H74.8406C74.737 12.2518 74.6326 12.3463 74.6065 12.4395L73.4869 16.9813H73.4347L71.4168 12.2655C71.3908 12.1853 71.3125 12.1182 71.1954 12.1182H70.9607C70.857 12.1182 70.7788 12.1853 70.7393 12.2655L68.7214 16.9813H68.6692L67.5496 12.4395C67.5235 12.3463 67.4192 12.2518 67.3155 12.2518H65.7919C65.6093 12.2518 65.5056 12.3854 65.5571 12.5737L68.0178 21.5766Z" fill="#009CDE"/>
<path d="M119.49 0.133789H113.708C113.566 0.133789 113.462 0.254358 113.462 0.387962V1.84978C113.462 1.98338 113.566 2.10395 113.708 2.10395H115.572V9.25858C115.572 9.39284 115.688 9.51275 115.82 9.51275H117.383C117.512 9.51275 117.629 9.39218 117.629 9.25858V2.10395H119.49C119.633 2.10395 119.739 1.98338 119.739 1.84978V0.388613C119.739 0.254358 119.634 0.134441 119.49 0.134441V0.133789Z" fill="#009CDE"/>
<path d="M111.007 0.133789H105.225C105.082 0.133789 104.979 0.254358 104.979 0.387962V1.84978C104.979 1.98338 105.082 2.10395 105.225 2.10395H107.086V9.25858C107.086 9.39284 107.204 9.51275 107.335 9.51275H108.897C109.027 9.51275 109.145 9.39218 109.145 9.25858V2.10395H111.006C111.149 2.10395 111.254 1.98338 111.254 1.84978V0.388613C111.254 0.254358 111.15 0.134441 111.006 0.134441L111.007 0.133789Z" fill="#009CDE"/>
<path d="M98.5206 0C95.9167 0 93.8467 2.15721 93.8467 4.83645C93.8467 7.51568 95.9167 9.64617 98.5206 9.64617C101.124 9.64617 103.208 7.51568 103.208 4.83645C103.208 2.15721 101.125 0 98.5206 0ZM98.5206 7.5033C97.1019 7.5033 95.9288 6.29761 95.9288 4.8371C95.9288 3.37658 97.1026 2.14352 98.5206 2.14352C99.9386 2.14352 101.126 3.3629 101.126 4.8371C101.126 6.3113 99.9532 7.5033 98.5206 7.5033Z" fill="#009CDE"/>
<path d="M89.9504 4.74278C90.5611 4.4078 91.46 3.65766 91.46 2.62598C91.46 1.21956 90.1978 0.133789 88.6615 0.133789H85.6264C85.4839 0.133789 85.3789 0.254358 85.3789 0.387962V9.25858C85.3789 9.39284 85.4839 9.51275 85.6264 9.51275H88.8568C90.4071 9.51275 91.696 8.42763 91.696 6.92671C91.696 5.69365 90.6412 5.03736 89.951 4.74278H89.9504ZM87.4108 2.06289H88.4268C88.9211 2.06289 89.3377 2.43829 89.3377 2.97466C89.3377 3.51102 88.9211 3.93921 88.4268 3.93921H87.4108V2.06354V2.06289ZM88.596 7.59603H87.4108V5.68061H88.4656C88.9745 5.68061 89.533 6.08273 89.533 6.6191C89.533 7.15547 89.1036 7.59603 88.596 7.59603Z" fill="#009CDE"/>
<path d="M80.9165 4.74278C81.5291 4.4078 82.4268 3.65766 82.4268 2.62598C82.4268 1.21956 81.1633 0.133789 79.627 0.133789H76.5932C76.45 0.133789 76.3457 0.254358 76.3457 0.387962V9.25858C76.3457 9.39284 76.4494 9.51275 76.5932 9.51275H79.8223C81.3726 9.51275 82.6615 8.42763 82.6615 6.92671C82.6615 5.69365 81.6068 5.03736 80.9165 4.74278ZM78.377 2.06289H79.3929C79.8872 2.06289 80.3039 2.43829 80.3039 2.97466C80.3039 3.51102 79.8872 3.93921 79.3929 3.93921H78.377V2.06354V2.06289ZM79.5621 7.59603H78.377V5.68061H79.4317C79.9407 5.68061 80.4998 6.08273 80.4998 6.6191C80.4998 7.15547 80.0711 7.59603 79.5621 7.59603Z" fill="#009CDE"/>
<path d="M70.1629 0.14729C70.1247 0.0664759 70.0338 0 69.9415 0H69.8118C69.7195 0 69.6285 0.0671276 69.5904 0.14729L65.5145 9.16455C65.4362 9.33856 65.5399 9.51257 65.7359 9.51257H67.1685C67.4274 9.51257 67.5718 9.35224 67.6361 9.19127L68.1062 8.11918H71.6464L72.1166 9.17823C72.233 9.43241 72.3367 9.51322 72.5714 9.51322H74.0168C74.2127 9.51322 74.3164 9.33856 74.2382 9.1652L70.1629 0.14729ZM68.8868 6.29696L69.8633 4.08631H69.876L70.8665 6.29696H68.8868Z" fill="#009CDE"/>
<path d="M7.70092 15.3236C3.62122 15.3236 0.314453 18.7262 0.314453 22.9246V38.2532C0.314453 42.4516 3.62122 45.8543 7.70156 45.8543H48.5393C52.619 45.8543 55.9257 42.4516 55.9257 38.2532V7.68081C55.9257 3.48371 52.619 0.0810547 48.5393 0.0810547H0.314453V7.70232H46.1244C47.4476 7.70232 48.5196 8.80438 48.5196 10.1658V35.7701C48.5196 37.1296 47.4476 38.2336 46.1257 38.2336H10.1158C8.79448 38.2336 7.72191 37.1303 7.72191 35.7701V25.409C7.72191 24.0495 8.79385 22.9455 10.1158 22.9455H41.1121V15.3242H7.70092V15.3236Z" fill="#009CDE"/>
</g>
<defs>
<clipPath id="clip0_208_1408">
<rect width="197" height="46" fill="white" transform="translate(0.314453)"/>
</clipPath>
</defs>
</svg>
